<svg xmlns="http://www.w3.org/2000/svg" width="184" height="17" viewBox="0 0 184 17"><g><g opacity="-1"><g><path fill="#1a1818" d="M13.178 6.833c-.815-.878-1.906-1.63-3.256-1.63-1.79 0-3.477 1.398-3.761 3.159-.286 1.782 1.045 3.158 2.838 3.158 1.374 0 2.558-.58 3.667-1.5l-1.152 6.059c-1.031.452-3.29.648-4.356.648-4.699 0-7.791-3.598-7.048-8.215C.87 3.785 5.265 0 10.088 0c1.353 0 2.71.233 3.91.67z"/></g><g><path fill="#1a1818" d="M52.487 4.684h.455c1.028 0 1.899.155 1.699 1.398-.198 1.208-1.201 1.352-2.187 1.352h-.416zm-7.751 11.778h5.847l.838-5.197h.114l1.781 5.197h6.903L57.48 11.2c-.248-.474-.577-.73-.844-.962l.02-.136c2.343-.73 3.472-1.76 3.867-4.212.655-4.083-2.239-5.624-5.956-5.624H47.34z"/></g><g><path fill="#1a1818" d="M67.343 5.334h.376c2.18 0 3.354.963 2.986 3.242-.34 2.13-2.017 3.023-4.005 3.023h-.373zm-7.78 11.128h7.58c4.828 0 8.766-3.057 9.54-7.862.965-5.952-2.888-8.335-8.414-8.335H62.17z"/></g><g><path fill="#1a1818" d="M78.923.265h5.99l-2.614 16.197h-5.982z"/></g><g><path fill="#1a1818" d="M86.287.265h5.743l3.929 8.981h.177c-.027-.076.944-8.981.944-8.981h5.719l-2.612 16.197H94.47l-3.893-8.508h-.175l-1 8.508h-5.725z"/></g><g><path fill="#1a1818" d="M108.85 10.597l1.885-4.94h.22c-.007.686.293 4.94.293 4.94zm-1.692 3.846h4.524l.216 2.02h6.331L114.967.264h-6.619l-8.33 16.197h6.328z"/></g><g><path fill="#1a1818" d="M125.993 5.334h.366c2.188 0 3.36.963 2.997 3.242-.345 2.13-2.019 3.023-4.002 3.023h-.374zm-7.78 11.128h7.579c4.826 0 8.771-3.057 9.54-7.862.966-5.952-2.89-8.335-8.416-8.335h-6.09z"/></g><g><path fill="#1a1818" d="M141.207 8.49c.279-1.72 1.686-3.158 3.587-3.158 1.9 0 2.848 1.438 2.573 3.159-.301 1.851-1.763 3.11-3.583 3.11-1.812 0-2.87-1.259-2.577-3.11m12.2-.085c.82-5.097-2.751-8.406-7.756-8.406-5 0-9.638 3.309-10.454 8.406-.836 5.201 2.74 8.321 7.762 8.321 5.03 0 9.616-3.12 10.449-8.321"/></g><g><path fill="#1a1818" d="M160.235 4.684h.457c1.026 0 1.9.155 1.696 1.398-.193 1.208-1.206 1.352-2.18 1.352h-.413zm-7.749 11.778h5.854l.838-5.197h.109l1.788 5.197h6.898l-2.738-5.263c-.252-.474-.58-.73-.849-.962l.025-.136c2.341-.73 3.468-1.76 3.867-4.212.657-4.083-2.244-5.624-5.952-5.624h-7.23z"/></g><g><path fill="#1a1818" d="M174.62 10.597l1.882-4.94h.22c-.006.686.297 4.94.297 4.94zm-1.698 3.846h4.528l.212 2.02H184L180.734.264h-6.617l-8.327 16.197h6.33z"/></g><g><path fill="#0059a6" d="M37.622.353c-2.178-.048-4.315.534-6.134 1.52.168.234.354.41.53.641.886 1.108 1.3 2.423 1.3 3.887v.397a3.953 3.953 0 0 1 2.955-1.323c1.944.051 2.77 1.45 2.369 3.062a4.035 4.035 0 0 1-3.905 3.034c-1.174-.057-1.937-.525-2.298-1.27-.88 1.903-2.359 3.542-4.189 4.7 1.3.934 3.14 1.447 5.197 1.501 5.14-.005 10.089-2.97 11.388-7.971C46.064 3.6 42.691.409 37.622.353"/></g><g><path fill="#0059a6" d="M26.298 8.44c-.405 1.572-1.643 2.675-3.18 2.967-.278.042-.48.055-.775.055-1.824-.055-2.83-1.271-2.365-3.081.356-1.382 1.598-2.604 3.129-2.89.303-.062.537-.123.834-.118 1.885.056 2.763 1.44 2.357 3.068M25.223.254c-.704.01-1.416.062-2.122.177-4.302.697-8.201 3.614-9.26 7.846-1.284 5.06 2.148 8.08 7.273 8.128a12.82 12.82 0 0 0 2.007-.179c4.364-.64 8.201-3.432 9.318-7.798C33.732 3.496 30.36.303 25.223.254"/></g></g></g></svg>